<?xml version="1.0" encoding="UTF-8" standalone="no"?>
<!-- Created with Inkscape (http://www.inkscape.org/) -->

<svg
   width="250"
   height="250"
   viewBox="0 0 66.145832 66.145835"
   version="1.1"
   id="svg24629"
   inkscape:version="1.1.2 (08b2f3d93c, 2022-04-05)"
   sodipodi:docname="logo.svg"
   xmlns:inkscape="http://www.inkscape.org/namespaces/inkscape"
   xmlns:sodipodi="http://sodipodi.sourceforge.net/DTD/sodipodi-0.dtd"
   xmlns="http://www.w3.org/2000/svg"
   xmlns:svg="http://www.w3.org/2000/svg">
  <sodipodi:namedview
     id="namedview24631"
     pagecolor="#ffffff"
     bordercolor="#666666"
     borderopacity="1.0"
     inkscape:pageshadow="2"
     inkscape:pageopacity="0.0"
     inkscape:pagecheckerboard="0"
     inkscape:document-units="mm"
     showgrid="false"
     units="px"
     inkscape:zoom="0.33197215"
     inkscape:cx="396.11757"
     inkscape:cy="561.79411"
     inkscape:window-width="1366"
     inkscape:window-height="708"
     inkscape:window-x="0"
     inkscape:window-y="0"
     inkscape:window-maximized="1"
     inkscape:current-layer="layer1" />
  <defs
     id="defs24626" />
  <g
     inkscape:label="Camada 1"
     inkscape:groupmode="layer"
     id="layer1">
    <path
       style="fill:#8e694e;fill-opacity:1;stroke-width:0.0544352"
       d="m 27.769125,67.144597 c -0.0299,-0.01 -0.311628,-0.0967 -0.625992,-0.19294 -0.314363,-0.0962 -0.951265,-0.29693 -1.415328,-0.44585 -0.464048,-0.14886 -0.929478,-0.29676 -1.034266,-0.32857 -0.104804,-0.0318 -0.386486,-0.12579 -0.626008,-0.20878 -0.239506,-0.083 -0.68043,-0.22918 -0.979828,-0.32475 -0.773879,-0.24703 -1.809958,-0.61338 -1.988665,-0.70317 -0.04596,-0.0231 -0.158398,-0.0584 -0.250177,-0.0786 -0.192528,-0.0423 -0.354552,-0.23805 -0.454219,-0.5488 -0.03849,-0.11975 -0.09733,-0.27898 -0.130886,-0.35383 -0.04485,-0.0999 -0.0652,-7.09663 -0.07634,-26.264 -0.0095,-15.150452 -0.03562,-26.148237 -0.06377,-26.176302 -0.0466,-0.04663 -0.717008,0.317982 -0.755621,0.410953 -0.0095,0.02403 -0.04215,0.0437 -0.07141,0.0437 -0.07618,0 -1.453879,0.940709 -1.669275,1.139812 -0.09924,0.09165 -0.201227,0.166634 -0.226815,0.166634 -0.02561,0 -0.05471,0.01837 -0.06473,0.04082 -0.0095,0.02246 -0.140587,0.137803 -0.290318,0.256342 -0.638874,0.505881 -1.857413,1.724315 -2.659584,2.659369 -1.039832,1.212098 -2.81116,3.669792 -2.81116,3.900466 0,0.03095 -0.02449,0.05627 -0.05439,0.05627 -0.0299,0 -0.05439,0.02406 -0.05439,0.05348 0,0.02941 -0.09383,0.207006 -0.208415,0.394656 -0.114664,0.187648 -0.269803,0.463657 -0.344803,0.613354 -0.07507,0.149699 -0.164029,0.32117 -0.197808,0.381048 -0.298126,0.528444 -0.8316078,1.755011 -1.1961308,2.750097 -0.772192,2.107974 -1.178272,3.828417 -1.425904,6.041194 -0.03181,0.284423 -0.08206,0.714371 -0.111484,0.955442 -0.03372,0.274896 -0.05359,4.561974 -0.05359,11.499015 v 11.06072 l -0.168482,0.15011 c -0.09272,0.0826 -0.185943,0.15012 -0.207301,0.15012 -0.06966,0 -0.567865,-0.42654 -0.98557,-0.84375 -0.428646,-0.42813 -0.957579,-1.18926 -1.777927,-2.55846 -0.170422,-0.28442 -0.329918,-0.52529 -0.354425,-0.53527 -0.02449,-0.01 -0.04453,-0.0631 -0.04453,-0.11794 0,-0.0549 -0.01877,-0.10797 -0.04183,-0.11794 -0.05852,-0.0254 -0.376625,-0.62283 -0.908024,-1.70564 -0.668534,-1.36225 -1.158583,-2.52971 -1.499871,-3.5732 -0.05519,-0.1689 -0.124365,-0.35262 -0.153628,-0.40827 -0.02926,-0.0556 -0.0924,-0.2359 -0.140427,-0.40057 -0.04803,-0.16466 -0.172919,-0.58286 -0.277595,-0.92932 -0.104645,-0.34645 -0.190317,-0.68183 -0.190317,-0.74527 0,-0.0634 -0.02131,-0.1285 -0.04723,-0.14456 -0.02608,-0.0161 -0.06345,-0.13388 -0.08333,-0.26178 -0.01988,-0.1279 -0.09749,-0.48976 -0.17271198,-0.80413 -0.235896,-0.98667 -0.249812,-1.05074 -0.331078,-1.52418 -0.139315,-0.81172 -0.171758,-1.04106 -0.288601,-2.04132 -0.209194,-1.790744 -0.318053,-4.488131 -0.216414,-5.361872 0.02608,-0.224544 0.07316,-0.787949 0.104486,-1.252008 0.06791,-1.005622 0.187502,-2.133852 0.273953,-2.585674 0.03435,-0.179637 0.06997,-0.400099 0.07936,-0.489917 0.02163,-0.209873 0.108621,-0.66063 0.220661,-1.143141 0.04866,-0.209576 0.111006,-0.503526 0.13836,-0.653222 0.02735,-0.149699 0.100351,-0.468144 0.16205598,-0.70766 0.06171,-0.239514 0.125797,-0.496721 0.142654,-0.571569 0.0167,-0.07484 0.128182,-0.454533 0.247681,-0.843745 0.119435,-0.389212 0.24908,-0.817891 0.287964,-0.952618 0.06918,-0.239711 0.241239,-0.732815 0.560247,-1.605839 0.156967,-0.429713 0.517467,-1.305652 0.72216,-1.754944 0.05789,-0.12691 0.105122,-0.243883 0.105122,-0.259929 0,-0.02964 0.966374,-1.973574 1.203829,-2.421598 0.07141,-0.134735 0.14822,-0.253125 0.17066,-0.263104 0.02242,-0.01002 0.04087,-0.04017 0.04087,-0.06708 0,-0.02692 0.09797,-0.209027 0.21775,-0.404687 0.119753,-0.195661 0.217734,-0.37777 0.217734,-0.404686 0,-0.02691 0.02179,-0.05711 0.04819,-0.06708 0.02656,-0.01002 0.177371,-0.238608 0.335197,-0.508062 0.32548,-0.555632 1.230165,-1.859872 1.631505,-2.352026 0.02958,-0.03616 0.05359,-0.08924 0.05359,-0.117941 0,-0.02871 0.01829,-0.06037 0.04087,-0.07034 0.02242,-0.01002 0.24846,-0.275352 0.502232,-0.589714 0.253771,-0.314364 0.550895,-0.669554 0.660264,-0.789311 0.109415,-0.119753 0.32971,-0.376965 0.489635,-0.571571 0.331858,-0.403829 1.8731898,-1.94965 2.5510108,-2.558455 0.250019,-0.224546 0.481335,-0.433618 0.514048,-0.464606 0.03276,-0.031 0.243212,-0.202459 0.467769,-0.381047 0.224541,-0.178587 0.432749,-0.35316 0.462695,-0.387937 0.04135,-0.04812 0.996081,-0.766315 1.74321,-1.311429 0.323699,-0.236172 0.570696,-0.394485 0.61548,-0.394485 0.03006,0 0.06282,-0.01837 0.07268,-0.04082 0.02974,-0.067 0.362265,-0.285785 0.434308,-0.285785 0.03674,0 0.117367,-0.04699 0.17912,-0.104439 0.09113,-0.08467 1.265232,-0.82096 1.309142,-0.82096 0.0064,0 0.221789,-0.120485 0.477676,-0.267729 1.467476,-0.844421 4.497722,-2.222614 4.708793,-2.141617 0.05057,0.01942 0.07125,0.01002 0.05073,-0.02303 -0.04358,-0.0706 1.839076,-0.694357 1.928676,-0.638989 0.03785,0.02344 0.04994,0.01652 0.02942,-0.01683 -0.01924,-0.03114 0.01988,-0.06864 0.08683,-0.08333 0.06695,-0.01463 0.556971,-0.138917 1.088799,-0.276066 0.531811,-0.137152 1.082978,-0.27368 1.224789,-0.303408 C 27.267853,0.089233 27.40343,0.06393 27.647055,0.03292 L 27.90563,0 v 33.585498 c 0,18.472029 -0.01845,33.583569 -0.04087,33.581199 -0.02242,-0.002 -0.06536,-0.0127 -0.09526,-0.0221 z m 0.02719,-0.1913 c 0,-0.0299 -0.02592,-0.0544 -0.05757,-0.0544 -0.03165,0 -0.04246,0.0245 -0.02401,0.0544 0.01845,0.0299 0.04437,0.0544 0.05757,0.0544 0.01272,0 0.02401,-0.0245 0.02401,-0.0544 z m -7.239892,-2.69133 c 0,-0.0127 -0.02449,-0.0391 -0.05439,-0.0576 -0.0299,-0.0185 -0.05439,-0.008 -0.05439,0.024 0,0.0316 0.02449,0.0576 0.05439,0.0576 0.0299,0 0.05439,-0.0111 0.05439,-0.024 z M 6.0551092,52.433837 c -0.05534,-0.0553 -0.100987,0.028 -0.05566,0.10143 0.03435,0.0555 0.04707,0.0555 0.06552,2.1e-4 0.01272,-0.0378 0.008,-0.0836 -0.0095,-0.10166 z m -1.220479,-1.93177 c -0.03912,-0.0391 -0.06441,-0.0423 -0.06441,-0.008 0,0.0727 0.06441,0.13704 0.100669,0.1007 0.0159,-0.0154 -8.27e-4,-0.0571 -0.03626,-0.0925 z m 2.983951,-18.605059 c 0,-0.02995 -0.02592,-0.05444 -0.05757,-0.05444 -0.03165,0 -0.04246,0.02449 -0.02401,0.05444 0.01845,0.02995 0.04453,0.05444 0.05757,0.05444 0.01272,0 0.02401,-0.02449 0.02401,-0.05444 z m 0.0361,-0.939007 c -0.01431,-0.03742 -0.02751,-0.0068 -0.02751,0.06805 0,0.07484 0.01272,0.105471 0.02751,0.06805 0.0159,-0.03742 0.0159,-0.09866 0,-0.136085 z M 0.77810122,27.147536 c -0.01431,-0.03742 -0.02751,-0.0068 -0.02751,0.06805 0,0.07484 0.01272,0.105471 0.02751,0.06805 0.01431,-0.03742 0.01431,-0.09866 0,-0.136085 z m 7.73094398,0.0033 c -0.01734,-0.04343 -0.03022,-0.03052 -0.03292,0.03289 -0.0016,0.05738 0.01113,0.08954 0.02863,0.07144 0.01813,-0.01808 0.02004,-0.06504 0.0048,-0.104327 z m 1.288276,-3.825734 c 0.01686,-0.04396 0.008,-0.09439 -0.02147,-0.112087 -0.02863,-0.0177 -0.052,0.01827 -0.052,0.07991 0,0.131442 0.03022,0.144705 0.07347,0.03217 z m -6.986726,-2.805149 c 0,-0.02995 -0.02449,-0.05444 -0.05439,-0.05444 -0.0299,0 -0.05439,0.02449 -0.05439,0.05444 0,0.02993 0.02449,0.05444 0.05439,0.05444 0.0299,0 0.05439,-0.02449 0.05439,-0.05444 z m 2.068532,-4.164297 c 0,-0.04491 -0.0095,-0.08165 -0.02147,-0.08165 -0.01113,0 -0.03547,0.03675 -0.0528,0.08165 -0.01718,0.04491 -0.008,0.08165 0.02147,0.08165 0.02895,0 0.0528,-0.03674 0.0528,-0.08165 z m 0.653235,-1.115922 c 0,-0.02995 -0.01113,-0.05444 -0.02402,-0.05444 -0.01272,0 -0.03912,0.02449 -0.05757,0.05444 -0.01845,0.02995 -0.008,0.05444 0.02401,0.05444 0.03165,0 0.05757,-0.02449 0.05757,-0.05444 z M 15.766176,14.559293 c 0.07029,-0.07484 0.115619,-0.136086 0.100669,-0.136086 -0.01431,0 -0.08476,0.06124 -0.155058,0.136086 -0.07029,0.07484 -0.115619,0.136086 -0.100669,0.136086 0.01431,0 0.08477,-0.06124 0.155058,-0.136086 z m 1.360892,-1.224792 c 0,-0.02995 -0.02449,-0.05444 -0.05439,-0.05444 -0.0299,0 -0.05439,0.02449 -0.05439,0.05444 0,0.02995 0.02449,0.05444 0.05439,0.05444 0.0299,0 0.05439,-0.02449 0.05439,-0.05444 z m 2.504017,-1.741888 c 0,-0.02995 -0.01113,-0.05444 -0.02401,-0.05444 -0.01272,0 -0.03912,0.02449 -0.05757,0.05444 -0.01845,0.02993 -0.008,0.05444 0.02401,0.05444 0.03165,0 0.05757,-0.02449 0.05757,-0.05444 z M 9.2883952,10.334177 c 0,-0.02993 -0.02449,-0.0393 -0.05439,-0.02079 -0.0299,0.0185 -0.05439,0.05814 -0.05439,0.08807 0,0.02995 0.02449,0.0393 0.05439,0.02079 0.0299,-0.0185 0.05439,-0.05814 0.05439,-0.08807 z M 10.812567,9.197462 c 0,-0.02995 -0.01113,-0.05444 -0.02401,-0.05444 -0.01272,0 -0.03912,0.02449 -0.05757,0.05444 -0.01845,0.02995 -0.008,0.05444 0.02401,0.05444 0.03165,0 0.05757,-0.02449 0.05757,-0.05444 z m 15.063824,-8.57922 c -0.01813,-0.01808 -0.06504,-0.02002 -0.104327,-0.0043 -0.04342,0.01738 -0.03054,0.03028 0.03292,0.03289 0.05741,0.0024 0.08954,-0.0105 0.07141,-0.02859 z m 6.846361,66.498305 c -0.01956,-0.0316 0.04198,-0.0579 0.146471,-0.0627 0.164696,-0.008 0.167304,-0.01 0.03038,-0.0309 -0.08238,-0.0127 -0.149652,-0.0394 -0.149652,-0.0598 -1.75e-4,-3.92264 -3.34e-4,-66.661231 -2.39e-4,-66.761195 l 2.39e-4,-0.149699 1.265613,0.0057 c 1.766128,0.0081 2.536046,0.07486 4.640591,0.40266 0.555699,0.08656 0.839099,0.139743 1.006689,0.188958 0.104645,0.03071 0.2577,0.05584 0.340223,0.05584 0.08254,0 0.150129,0.02712 0.150129,0.06026 0,0.03314 0.03228,0.04784 0.07188,0.03266 0.0396,-0.01511 0.2049,0.0087 0.367449,0.0531 0.162533,0.04439 0.466989,0.126989 0.67657,0.183561 1.45006,0.391418 1.43675,0.38737 2.31349,0.703404 0.34431,0.12411 0.73625,0.262582 0.87097,0.307719 0.1347,0.04513 0.34879,0.129375 0.47572,0.187204 0.12691,0.05783 0.24483,0.105138 0.26205,0.105138 0.0172,0 0.16518,0.06124 0.32881,0.136086 0.16365,0.07484 0.3115,0.136086 0.32858,0.136086 0.017,0 0.23728,0.09798 0.48935,0.217741 0.25207,0.119753 0.47033,0.21774 0.48502,0.21774 0.0431,0 1.17797,0.572398 1.3865,0.699261 0.1048,0.06376 0.25177,0.142225 0.32661,0.174384 0.1864,0.08009 0.94202,0.516426 1.30645,0.754414 0.3728,0.243455 0.48814,0.313206 0.62599,0.378507 0.23574,0.111658 1.97331,1.309887 2.37329,1.636622 0.16763,0.136913 0.39902,0.322421 0.51424,0.412239 2.24233,1.748014 4.4368,3.981896 6.1542,6.264738 0.6421,0.853526 1.81811,2.582676 1.81811,2.673286 0,0.01937 0.0336,0.07389 0.0746,0.121153 0.041,0.04726 0.1355,0.19617 0.21007,0.330898 0.0746,0.134719 0.21646,0.379686 0.31541,0.544352 0.50848,0.846117 1.76721,3.45123 1.71129,3.541719 -0.0143,0.02392 -0.002,0.0591 0.0293,0.07818 0.0309,0.0191 0.0943,0.12489 0.14106,0.235111 0.11975,0.282752 0.59592,1.572536 0.67676,1.833465 0.037,0.119753 0.0984,0.30348 0.13613,0.408266 0.16432,0.456068 0.52052,1.72696 0.67895,2.422368 0.0614,0.269454 0.13757,0.58526 0.1693,0.701788 0.10353,0.380218 0.272,1.380731 0.42729,2.53711 0.15974,1.189542 0.2471,2.468484 0.24724,3.619943 v 1.034267 l -9.79258,0.01384 c -7.29404,0.01018 -9.81175,-0.0022 -9.8677,-0.04859 -0.0857,-0.07107 -0.10067,-0.06185 -0.146,0.08927 -0.0219,0.07319 0.0159,0.16524 0.11578,0.280855 0.0816,0.09459 0.34434,0.40686 0.58385,0.693927 0.23952,0.287066 3.61995,3.700804 7.51206,7.586084 5.3081,5.29877 7.1072,7.12659 7.19907,7.31401 0.0716,0.14585 0.12246,0.35119 0.12246,0.49326 0,0.38119 -0.15921,0.64329 -1.19303,1.96412 -0.18214,0.23269 -0.33116,0.43751 -0.33116,0.45515 0,0.0176 -0.0938,0.14571 -0.20859,0.28459 -0.11466,0.13888 -0.2254,0.28925 -0.24595,0.33416 -0.0205,0.0449 -0.14106,0.21962 -0.26771,0.38824 -0.12676,0.16862 -0.43673,0.5973 -0.68896,0.95262 -0.25221,0.35532 -0.47267,0.65827 -0.4899,0.67324 -0.0172,0.0149 -0.16475,0.22319 -0.32781,0.4627 -0.42902,0.63019 -0.99147,1.3881 -1.03013,1.3881 -0.0331,0 -1.72716,-1.71361 -2.17198,-2.19696 -0.12787,-0.13894 -0.24323,-0.25262 -0.25638,-0.25262 -0.0127,0 -0.14122,-0.12561 -0.28467,-0.27913 -0.14345,-0.15352 -0.90337,-0.93126 -1.68879,-1.72832 -0.7853,-0.79705 -1.42831,-1.4569 -1.4288,-1.46633 -0.002,-0.0434 -0.55832,-0.55443 -0.6033,-0.55443 -0.028,0 -0.0512,-0.0306 -0.0517,-0.068 -4.2e-4,-0.0374 -0.11069,-0.17411 -0.24497,-0.30374 -0.13422,-0.12963 -0.24405,-0.25824 -0.24405,-0.28578 0,-0.0275 -0.0382,-0.0501 -0.0849,-0.0501 -0.0466,0 -0.0696,-0.0245 -0.0512,-0.0544 0.0184,-0.0299 0.0111,-0.0544 -0.0175,-0.0544 -0.0515,0 -0.22632,-0.17497 -2.27747,-2.28052 -0.62399,-0.64053 -1.44071,-1.47616 -1.81495,-1.85696 -0.37424,-0.3808 -1.4763,-1.50407 -2.44902,-2.49617 -1.8811,-1.91855 -1.85586,-1.89864 -2.20532,-1.73941 l -0.141381,0.0644 0.008,11.9251 c 0.0064,9.18093 -0.0064,11.98144 -0.05741,12.16992 -0.131363,0.48848 -0.335436,0.74495 -0.734024,0.92285 -0.279011,0.12452 -0.386137,0.1425 -1.633922,0.27538 -1.032723,0.1099 -2.104609,0.23803 -2.721759,0.32529 -1.231119,0.17408 -2.875855,0.37865 -3.05876,0.38043 -0.06552,6.1e-4 -0.134385,-0.0234 -0.152833,-0.0533 z m 6.192005,-0.85257 c -0.03737,-0.0159 -0.0986,-0.0159 -0.136133,0 -0.03737,0.0159 -0.0064,0.0273 0.06807,0.0273 0.07491,0 0.10544,-0.0127 0.06807,-0.0273 z m 17.514528,-10.36108 c 0,-0.0299 -0.0259,-0.0544 -0.0576,-0.0544 -0.0316,0 -0.0425,0.0245 -0.024,0.0544 0.0185,0.0299 0.0444,0.0544 0.0576,0.0544 0.0127,0 0.024,-0.0245 0.024,-0.0544 z m 1.74193,-0.81653 c 0,-0.0299 -0.0111,-0.0544 -0.024,-0.0544 -0.0127,0 -0.0391,0.0245 -0.0576,0.0544 -0.0185,0.0299 -0.008,0.0544 0.024,0.0544 0.0316,0 0.0576,-0.0245 0.0576,-0.0544 z m -3.75604,-1.30645 c 0,-0.0299 -0.0259,-0.0544 -0.0576,-0.0544 -0.0316,0 -0.0425,0.0245 -0.024,0.0544 0.0185,0.0299 0.0445,0.0544 0.0577,0.0544 0.0127,0 0.024,-0.0245 0.024,-0.0544 z m -0.65321,-0.65322 c 0,-0.0299 -0.0259,-0.0544 -0.0576,-0.0544 -0.0316,0 -0.0425,0.0245 -0.024,0.0544 0.0185,0.0299 0.0444,0.0544 0.0576,0.0544 0.0127,0 0.024,-0.0245 0.024,-0.0544 z m 7.78423,-2.67054 c 0,-0.0282 -0.0245,-0.0512 -0.0544,-0.0512 -0.0299,0 -0.0544,0.0382 -0.0544,0.0849 0,0.0467 0.0245,0.0697 0.0544,0.0512 0.0299,-0.0185 0.0544,-0.0567 0.0544,-0.0849 z m -13.98985,-3.69838 c 0,-0.0299 -0.0245,-0.0544 -0.0544,-0.0544 -0.0299,0 -0.0544,0.0245 -0.0544,0.0544 0,0.0299 0.0245,0.0544 0.0544,0.0544 0.0299,0 0.0544,-0.0245 0.0544,-0.0544 z m -2.23184,-2.23185 c 0,-0.0299 -0.0259,-0.0544 -0.0576,-0.0544 -0.0316,0 -0.0425,0.0245 -0.024,0.0544 0.0184,0.0299 0.0444,0.0544 0.0576,0.0544 0.0127,0 0.024,-0.0245 0.024,-0.0544 z m 5.47074,-5.60683 c 0.0185,-0.0299 0.008,-0.0544 -0.024,-0.0544 -0.0316,0 -0.0576,0.0245 -0.0576,0.0544 0,0.0299 0.0111,0.0544 0.024,0.0544 0.0127,0 0.0391,-0.0245 0.0577,-0.0544 z m 5.26976,-13.984835 c 0.044,-0.04405 -0.002,-0.250386 -0.1285,-0.576588 -0.0232,-0.05988 -0.0663,-0.206852 -0.0959,-0.326611 -0.0716,-0.290615 -0.31463,-0.963337 -0.48184,-1.333663 -0.24317,-0.538566 -0.68547,-1.441926 -0.71963,-1.469752 -0.0183,-0.01495 -0.1161,-0.186441 -0.21718,-0.381045 -0.10115,-0.194608 -0.27866,-0.494402 -0.39465,-0.666216 -0.11593,-0.171813 -0.21089,-0.325109 -0.21089,-0.340661 0,-0.02952 -0.63016,-0.914305 -0.85305,-1.197752 -0.0706,-0.08982 -0.14647,-0.187823 -0.16843,-0.217788 -0.34115,-0.46462 -0.38687,-0.521539 -0.93641,-1.165821 -0.84942,-0.995851 -1.81934,-1.965191 -3.04383,-3.04201 -0.11101,-0.09766 -0.74438,-0.600131 -1.23112,-0.976753 -0.38674,-0.299252 -0.84269,-0.61272 -0.89123,-0.61272 -0.0337,0 -0.0614,-0.02176 -0.0614,-0.04835 0,-0.04345 -0.67578,-0.495997 -0.74065,-0.495997 -0.0143,0 -0.17863,-0.10175 -0.3643,-0.226109 -0.49813,-0.333655 -1.69461,-0.929413 -2.43657,-1.21324 -0.62493,-0.239052 -1.79819,-0.587824 -1.83927,-0.546747 -0.027,0.02696 -0.0127,14.835972 0.0143,14.879703 0.0339,0.0548 14.74555,0.0132 14.80059,-0.04187 z M 41.061311,24.592426 c -0.01733,-0.04342 -0.03022,-0.03052 -0.03292,0.03289 -0.0016,0.05738 0.01113,0.08954 0.02863,0.07145 0.01813,-0.01808 0.02004,-0.06504 0.0048,-0.104343 z m 23.152214,-2.330507 c 0,-0.02993 -0.0245,-0.05444 -0.0544,-0.05444 -0.0299,0 -0.0544,0.02449 -0.0544,0.05444 0,0.02995 0.0245,0.05444 0.0544,0.05444 0.0299,0 0.0544,-0.02449 0.0544,-0.05444 z m -0.94265,-2.296486 c -0.0173,-0.04343 -0.0302,-0.03054 -0.0329,0.03289 -0.002,0.05738 0.0111,0.08954 0.0286,0.07146 0.0181,-0.01808 0.02,-0.06505 0.005,-0.104327 z m -10.97867,-2.493816 c 0,-0.02995 -0.0259,-0.05444 -0.0576,-0.05444 -0.0316,0 -0.0425,0.02449 -0.024,0.05444 0.0185,0.02995 0.0445,0.05444 0.0576,0.05444 0.0127,0 0.024,-0.02449 0.024,-0.05444 z m -0.48992,-0.544351 c 0,-0.02995 -0.0259,-0.05444 -0.0576,-0.05444 -0.0316,0 -0.0425,0.02449 -0.024,0.05444 0.0185,0.02993 0.0445,0.05444 0.0576,0.05444 0.0127,0 0.024,-0.02449 0.024,-0.05444 z m -3.97376,-3.997778 c 0,-0.0132 -0.0245,-0.03914 -0.0544,-0.05765 -0.0299,-0.0185 -0.0544,-0.0076 -0.0544,0.024 0,0.03171 0.0245,0.05765 0.0544,0.05765 0.0299,0 0.0544,-0.01081 0.0544,-0.024 z m -1.36088,-0.765306 c 0,-0.04491 -0.0367,-0.08165 -0.0816,-0.08165 -0.1417,0 -0.0957,0.107285 0.0681,0.159003 0.008,0.0024 0.0143,-0.03244 0.0143,-0.07735 z m 11.59471,-0.353829 c 0,-0.02995 -0.0259,-0.05444 -0.0576,-0.05444 -0.0316,0 -0.0425,0.02449 -0.024,0.05444 0.0185,0.02995 0.0445,0.05444 0.0576,0.05444 0.0127,0 0.024,-0.02449 0.024,-0.05444 z m -0.83379,-0.935605 c -0.0173,-0.04342 -0.0302,-0.03052 -0.0329,0.03289 -0.002,0.05738 0.0111,0.08954 0.0286,0.07144 0.0181,-0.01808 0.02,-0.06504 0.005,-0.104343 z m -10.271,-7.577685 c 0,-0.01177 -0.0367,-0.0355 -0.0816,-0.05272 -0.0448,-0.01724 -0.0816,-0.0076 -0.0816,0.02139 0,0.02899 0.0367,0.05272 0.0816,0.05272 0.0448,0 0.0816,-0.0097 0.0816,-0.02139 z M 45.433385,2.6108 c 0,-0.02995 -0.0245,-0.05444 -0.0544,-0.05444 -0.0299,0 -0.0544,0.02449 -0.0544,0.05444 0,0.02993 0.0245,0.05444 0.0544,0.05444 0.0299,0 0.0544,-0.02449 0.0544,-0.05444 z m -3.93409,-1.39377 c -0.0181,-0.01808 -0.065,-0.02002 -0.10433,-0.0043 -0.0434,0.01738 -0.0305,0.03028 0.0329,0.03289 0.0574,0.0024 0.0895,-0.0105 0.0714,-0.02859 z"
       id="path125" />
  </g>
</svg>
